HIERARCHY
ROOT Hips
{
	OFFSET 0.00000 0.00000 0.00000
	CHANNELS 6 Xposition Yposition Zposition Zrotation Yrotation Xrotation 
	JOINT LHipJoint
	{
		OFFSET 0 0 0
		CHANNELS 3 Zrotation Yrotation Xrotation
		JOINT LeftUpLeg
		{
			OFFSET 1.73240 -1.89999 0.57994
			CHANNELS 3 Zrotation Yrotation Xrotation
			JOINT LeftLeg
			{
				OFFSET 2.43106 -6.67930 0.00000
				CHANNELS 3 Zrotation Yrotation Xrotation
				JOINT LeftFoot
				{
					OFFSET 2.78854 -7.66147 0.00000
					CHANNELS 3 Zrotation Yrotation Xrotation
					JOINT LeftToeBase
					{
						OFFSET 0.17314 -0.47571 2.01064
						CHANNELS 3 Zrotation Yrotation Xrotation
						End Site
						{
							OFFSET 0.00000 -0.00000 1.04147
						}
					}
				}
			}
		}
	}
	JOINT RHipJoint
	{
		OFFSET 0 0 0
		CHANNELS 3 Zrotation Yrotation Xrotation
		JOINT RightUpLeg
		{
			OFFSET -1.57078 -1.89998 0.57994
			CHANNELS 3 Zrotation Yrotation Xrotation
			JOINT RightLeg
			{
				OFFSET -2.50166 -6.87326 0.00000
				CHANNELS 3 Zrotation Yrotation Xrotation
				JOINT RightFoot
				{
					OFFSET -2.77304 -7.61886 0.00000
					CHANNELS 3 Zrotation Yrotation Xrotation
					JOINT RightToeBase
					{
						OFFSET -0.23513 -0.64602 2.11039
						CHANNELS 3 Zrotation Yrotation Xrotation
						End Site
						{
							OFFSET -0.00000 -0.00000 1.10597
						}
					}
				}
			}
		}
	}
	JOINT LowerBack
	{
		OFFSET 0 0 0
		CHANNELS 3 Zrotation Yrotation Xrotation
		JOINT Spine
		{
			OFFSET -0.00908 2.00015 -0.35323
			CHANNELS 3 Zrotation Yrotation Xrotation
			JOINT Spine1
			{
				OFFSET 0.05647 2.02258 0.04270
				CHANNELS 3 Zrotation Yrotation Xrotation
				JOINT Neck
				{
					OFFSET 0 0 0
					CHANNELS 3 Zrotation Yrotation Xrotation
					JOINT Neck1
					{
						OFFSET -0.02074 1.73711 0.13117
						CHANNELS 3 Zrotation Yrotation Xrotation
						JOINT Head
						{
							OFFSET -0.02359 1.73615 -0.24320
							CHANNELS 3 Zrotation Yrotation Xrotation
							End Site
							{
								OFFSET -0.00579 1.75982 -0.09688
							}
						}
					}
				}
				JOINT LeftShoulder
				{
					OFFSET 0 0 0
					CHANNELS 3 Zrotation Yrotation Xrotation
					JOINT LeftArm
					{
						OFFSET 3.20537 1.11432 -0.27680
						CHANNELS 3 Zrotation Yrotation Xrotation
						JOINT LeftForeArm
						{
							OFFSET 5.05923 -0.00000 -0.00000
							CHANNELS 3 Zrotation Yrotation Xrotation
							JOINT LeftHand
							{
								OFFSET 3.51996 -0.00000 0.00000
								CHANNELS 3 Zrotation Yrotation Xrotation
								JOINT LeftFingerBase
								{
									OFFSET 0 0 0
									CHANNELS 3 Zrotation Yrotation Xrotation
									JOINT LeftHandIndex1
									{
										OFFSET 0.65238 -0.00000 0.00000
										CHANNELS 3 Zrotation Yrotation Xrotation
										End Site
										{
											OFFSET 0.52596 -0.00000 0.00000
										}
									}
								}
								JOINT LThumb
								{
									OFFSET 0 0 0
									CHANNELS 3 Zrotation Yrotation Xrotation
									End Site
									{
										OFFSET 0.53399 -0.00000 0.53399
									}
								}
							}
						}
					}
				}
				JOINT RightShoulder
				{
					OFFSET 0 0 0
					CHANNELS 3 Zrotation Yrotation Xrotation
					JOINT RightArm
					{
						OFFSET -2.96983 1.42602 -0.37449
						CHANNELS 3 Zrotation Yrotation Xrotation
						JOINT RightForeArm
						{
							OFFSET -5.40867 -0.00000 0.00000
							CHANNELS 3 Zrotation Yrotation Xrotation
							JOINT RightHand
							{
								OFFSET -3.12964 -0.00000 0.00000
								CHANNELS 3 Zrotation Yrotation Xrotation
								JOINT RightFingerBase
								{
									OFFSET 0 0 0
									CHANNELS 3 Zrotation Yrotation Xrotation
									JOINT RightHandIndex1
									{
										OFFSET -0.83271 -0.00000 0.00000
										CHANNELS 3 Zrotation Yrotation Xrotation
										End Site
										{
											OFFSET -0.67135 -0.00000 0.00000
										}
									}
								}
								JOINT RThumb
								{
									OFFSET 0 0 0
									CHANNELS 3 Zrotation Yrotation Xrotation
									End Site
									{
										OFFSET -0.68160 -0.00000 0.68160
									}
								}
							}
						}
					}
				}
			}
		}
	}
}
MOTION
Frames: 16
Frame Time: .0083333
-0.1555 17.0669 -19.492 0 0 0 0 0 0 -21 0 0 0 0 0 0 0 0 0 0 0 0 0 0 21 0 0 0 0 0 0 0 0 0 0 0 0 0 0 0 0 0 0 0 0 0 0 -16 0 0 21 0 0 11 0 0 0 -8 0 0 0 0 0 0 0 0 0 0 0 0 0 0 0 0 0 0 0 0 8 0 0 0 0 0 0 0 0 0 0 0 0 0 0 0 0 0
-0.1555 17.0669 -19.4920 168.6390 -85.7559 -170.6640 0.0000 0.0000 0.0000 -19.2713 -0.9528 -21.1605 9.3376 17.0201 57.2505 0.4088 -5.5279 -11.4463 2.1993 -9.2694 -26.6418 0.0000 0.0000 0.0000 4.5579 21.4844 -19.6144 -3.7183 -11.7758 34.9435 -0.5083 1.3769 -13.0615 -0.7295 5.4572 -15.2173 6.7885 0.4926 33.3319 7.3987 2.3112 8.6862 3.4560 0.4493 -7.4714 -3.8596 -2.9341 -11.3239 -9.5955 -1.6574 25.2027 -2.9494 -2.4491 9.8548 -0.0000 -0.0000 0.0000 -88.9698 12.6726 28.8913 32.9019 -43.2545 -13.3548 -0.0000 0.0000 -12.9247 24.1823 46.0565 17.9172 -7.1250 0.0000 -0.0000 -31.8217 76.9369 -24.2586 -0.0000 -0.0000 0.0000 59.5680 35.6062 5.3917 -14.4088 23.3161 -2.9880 0.0000 0.0000 24.0605 -5.9506 5.4738 -0.5697 7.1250 -0.0000 -0.0000 15.3379 -24.4684 7.8810
-0.1180 17.0522 -19.3930 168.5580 -86.0323 -170.3480 0.0000 0.0000 0.0000 -19.4984 1.0084 -22.1365 9.3051 17.0001 57.1393 0.4361 -6.2097 -11.8834 1.8528 -8.5525 -24.4051 0.0000 0.0000 0.0000 4.0855 22.1283 -19.7751 -3.7563 -11.8288 35.1291 -0.5608 1.9273 -13.6151 -0.2652 3.3129 -9.1511 6.6502 0.4709 33.2814 7.6285 2.2484 8.6912 3.7955 0.4151 -7.4701 -4.3078 -2.8922 -11.1876 -9.5222 -1.5474 24.9027 -2.8203 -2.4175 9.7371 0.0000 -0.0000 0.0000 -89.7873 12.5309 27.5600 33.0354 -43.3572 -13.4464 -0.0000 0.0000 -12.6395 20.0075 46.1395 14.7104 -7.1250 0.0000 -0.0000 -36.9413 75.3598 -27.1967 0.0000 -0.0000 0.0000 59.3360 36.3235 1.8891 -12.7104 20.8614 -2.3492 0.0000 0.0000 21.4056 -4.7542 4.0922 -0.3400 7.1250 -0.0000 -0.0000 16.3796 -25.8052 7.9257
-0.0887 17.0493 -19.2843 166.8010 -86.3246 -168.4780 0.0000 0.0000 0.0000 -20.2929 0.5754 -21.9456 9.2249 16.9503 56.8647 0.5134 -5.4317 -12.7733 1.3247 -7.2891 -20.5747 0.0000 0.0000 0.0000 3.5185 22.6556 -19.6452 -3.7571 -11.8300 35.1333 -0.6090 2.7145 -14.0653 -0.0560 1.5267 -4.1992 6.4439 0.4870 33.3790 7.7854 2.2428 8.6083 4.0747 0.4108 -7.6243 -4.8106 -3.4191 -11.2984 -9.1136 -2.2712 24.9183 -2.6781 -2.7516 9.7572 -0.0000 0.0000 0.0000 -91.2097 12.7103 24.6084 33.3633 -43.6075 -13.6720 -0.0000 0.0000 -10.0294 15.6629 45.7245 11.3516 -7.1250 0.0000 -0.0000 -40.4266 73.4405 -28.3932 -0.0000 0.0000 0.0000 59.1761 36.6976 -2.6743 -11.1896 18.5783 -1.8359 0.0000 0.0000 19.2605 -4.5052 3.0221 -0.2380 7.1250 -0.0000 -0.0000 16.7099 -26.8329 7.6768
-0.0608 17.0241 -19.1772 164.8450 -86.5948 -166.3230 0.0000 0.0000 0.0000 -21.1047 0.6988 -22.0496 9.1322 16.8921 56.5463 0.6077 -4.1153 -13.9041 1.6147 -8.0126 -22.7522 0.0000 0.0000 0.0000 2.9313 23.1970 -19.6589 -3.7535 -11.8250 35.1156 -0.6577 3.2748 -14.5572 -0.0106 0.6654 -1.8285 6.3586 0.4857 33.3732 7.8524 2.2372 8.5421 4.1934 0.4108 -7.7059 -4.3093 -2.9796 -10.8995 -9.4982 -1.7134 24.6740 -2.8122 -2.4749 9.5938 -0.0000 -0.0000 0.0000 -90.9465 12.6611 25.1493 33.4413 -43.6665 -13.7258 -0.0000 0.0000 -10.7709 21.6378 45.8867 15.8975 -7.1250 0.0000 -0.0000 -34.3719 75.8090 -25.5158 -0.0000 -0.0000 0.0000 59.2353 37.1896 -9.4585 -9.8152 16.4500 -1.4222 0.0000 0.0000 19.3966 -4.9960 2.6438 -0.2310 7.1250 -0.0000 -0.0000 16.4007 -27.2015 7.3741
-0.0523 17.0065 -19.0483 157.1580 -86.9253 -158.6370 0.0000 0.0000 0.0000 -22.1190 1.1131 -22.0286 8.9960 16.8052 56.0764 0.6643 -3.9110 -14.5679 1.2845 -7.1819 -20.2553 0.0000 0.0000 0.0000 2.0671 23.4060 -19.3746 -3.7384 -11.8039 35.0417 -0.7263 3.4816 -15.2978 -0.0100 0.6468 -1.7775 6.3873 0.3231 33.3375 7.8700 2.0456 8.5287 4.2659 0.3230 -7.6988 -4.6700 -3.2767 -11.0193 -9.3403 -2.0848 24.7193 -2.7436 -2.6657 9.6321 0.0000 0.0000 0.0000 -91.2183 12.7933 24.9762 33.5865 -43.7761 -13.8262 -0.0000 0.0000 -10.8477 16.1417 45.4830 11.6605 -7.1250 0.0000 -0.0000 -39.3173 73.4488 -27.5596 0.0000 0.0000 0.0000 59.0141 37.4910 -17.1069 -8.7507 14.7622 -1.1358 0.0000 0.0000 20.7573 -6.1250 2.4071 -0.2582 7.1250 -0.0000 -0.0000 15.5934 -27.4408 6.8921
-0.0276 17.0038 -18.9535 149.8080 -87.2907 -150.7460 0.0000 0.0000 0.0000 -23.0102 -0.3555 -21.8490 8.8378 16.7022 55.5276 0.7475 -2.8697 -15.6135 0.9888 -6.3291 -17.7423 0.0000 0.0000 0.0000 1.3465 23.8630 -19.5893 -3.7285 -11.7901 34.9933 -0.8015 2.9455 -16.1757 -0.0412 1.3105 -3.6036 6.0136 0.4432 32.9053 8.0457 2.1015 8.3888 4.6269 0.3677 -7.7277 -4.9206 -3.5588 -11.1973 -9.1825 -2.4423 24.9519 -2.7021 -2.8484 9.7477 0.0000 0.0000 0.0000 -91.6662 13.0066 24.5304 33.7806 -43.9215 -13.9607 -0.0000 0.0000 -10.7532 16.5118 44.6305 11.7641 -7.1250 0.0000 -0.0000 -36.8415 72.9746 -25.3450 0.0000 0.0000 0.0000 58.6810 37.1591 -23.2765 -8.2236 13.9146 -1.0052 0.0000 0.0000 21.2248 -7.8733 2.0082 -0.2777 7.1250 -0.0000 -0.0000 14.3349 -27.8442 6.1591
-0.0071 16.9770 -18.8540 139.3310 -87.3351 -140.3630 0.0000 0.0000 0.0000 -23.8069 0.3482 -21.7632 8.6958 16.6079 55.0319 0.8025 -3.4898 -16.1069 0.8745 -5.9622 -16.6747 0.0000 0.0000 0.0000 0.6026 24.3210 -19.2390 -3.7323 -11.7954 35.0120 -0.8823 2.8483 -17.0181 -0.0346 1.2000 -3.2993 5.6249 0.4550 33.1287 7.9952 2.0207 8.3595 4.8100 0.3344 -7.8656 -4.9308 -3.6530 -11.2769 -9.1857 -2.5612 25.0937 -2.7236 -2.9119 9.8108 -0.0000 0.0000 0.0000 -91.7631 13.1833 24.2607 33.9286 -44.0317 -14.0634 -0.0000 0.0000 -11.4150 18.3435 44.5665 13.0979 -7.1250 0.0000 -0.0000 -34.6701 73.5918 -24.1943 -0.0000 0.0000 0.0000 58.7417 36.7877 -28.2273 -7.9639 13.4944 -0.9437 0.0000 0.0000 21.5134 -9.8091 1.6018 -0.2769 7.1250 -0.0000 -0.0000 12.9196 -28.2591 5.3893
0.0103 16.9579 -18.7428 137.3060 -88.0127 -138.2630 0.0000 0.0000 0.0000 -23.8645 0.0807 -21.5845 8.5678 16.5214 54.5830 0.8601 -3.4944 -16.6948 1.0485 -6.5116 -18.2762 0.0000 0.0000 0.0000 0.6627 24.4405 -19.0939 -3.7474 -11.8165 35.0858 -0.9718 2.8952 -17.8828 -0.0086 0.5985 -1.6447 6.2952 0.3366 33.1343 8.0713 2.1010 8.3150 4.5084 0.3649 -7.8801 -4.8969 -4.0274 -11.3517 -9.1448 -3.0941 25.1058 -2.7774 -3.1462 9.8132 -0.0000 0.0000 0.0000 -91.3948 13.1713 24.8050 33.9239 -44.0283 -14.0602 -0.0000 0.0000 -11.9027 16.2719 45.6435 11.7885 -7.1250 0.0000 -0.0000 -39.5900 73.6081 -27.8928 -0.0000 0.0000 0.0000 58.7339 35.9099 -31.7655 -8.1504 13.7964 -0.9877 0.0000 0.0000 20.2065 -12.2556 1.1412 -0.2479 7.1250 -0.0000 -0.0000 11.1009 -28.7357 4.4737
0.0351 16.9329 -18.6362 128.2390 -88.6326 -129.0470 0.0000 0.0000 0.0000 -24.0008 -0.5431 -21.3774 8.4581 16.4461 54.1965 0.9273 -3.4126 -17.3704 1.3284 -7.2987 -20.6034 0.0000 0.0000 0.0000 0.6112 24.5501 -19.1425 -3.7968 -11.8850 35.3263 -1.0500 2.4938 -18.6934 -0.0079 0.5753 -1.5809 6.2179 0.1153 33.1422 8.5074 1.8362 8.2373 5.1161 0.2297 -7.9900 -5.8126 -4.1045 -11.2134 -9.0032 -3.0784 25.0159 -2.5696 -3.2087 9.7897 -0.0000 -0.0000 0.0000 -92.3608 13.3806 23.6511 33.9630 -44.0573 -14.0873 -0.0000 0.0000 -11.8249 17.8412 45.3490 12.8967 -7.1250 0.0000 -0.0000 -37.1677 73.9797 -26.3457 -0.0000 -0.0000 0.0000 58.5309 35.2908 -32.9665 -8.4986 14.3578 -1.0724 0.0000 0.0000 18.1979 -14.0340 1.1358 -0.2839 7.1250 -0.0000 -0.0000 9.7327 -28.7512 3.9028
0.0521 16.9168 -18.5260 101.5500 -88.9138 -102.2270 0.0000 0.0000 0.0000 -24.4430 -1.5221 -20.9054 8.3171 16.3476 53.6969 0.9826 -3.6344 -17.8682 1.3025 -7.2300 -20.3987 0.0000 0.0000 0.0000 0.2484 24.4067 -19.2698 -3.8535 -11.9628 35.6006 -1.1271 2.2588 -19.4424 -0.0058 0.4900 -1.3464 6.0315 0.2256 33.0594 8.8116 1.9494 8.1877 5.5012 0.2850 -8.0527 -5.5692 -3.7985 -10.9287 -9.2524 -2.6754 24.7347 -2.6296 -3.0112 9.6330 0.0000 0.0000 0.0000 -92.6088 13.5051 23.3213 33.7627 -43.9082 -13.9483 -0.0000 0.0000 -10.7245 14.3017 44.9206 10.2046 -7.1250 0.0000 -0.0000 -39.8572 72.3919 -27.1132 0.0000 0.0000 0.0000 58.0426 33.8840 -33.1641 -9.0639 15.2622 -1.2169 0.0000 0.0000 14.8940 -15.0481 0.8818 -0.2371 7.1250 -0.0000 -0.0000 8.9719 -29.0151 3.5335
0.0868 16.8981 -18.4384 62.9704 -88.9641 -63.5561 0.0000 0.0000 0.0000 -24.1835 -1.0840 -20.9972 8.1765 16.2476 53.1961 0.9772 -6.0760 -17.6378 1.0234 -6.4354 -18.0531 0.0000 0.0000 0.0000 0.1615 23.3776 -19.8300 -3.9581 -12.1044 36.1025 -1.1872 3.0939 -19.8019 -0.0001 0.0526 -0.1446 6.4877 0.1912 33.1762 8.4993 2.0764 8.0986 4.8781 0.3524 -8.1510 -4.7198 -4.0553 -10.6556 -8.9983 -3.2767 24.4273 -2.7203 -3.1509 9.4269 0.0000 0.0000 0.0000 -91.4616 13.4757 24.1850 33.7114 -43.8698 -13.9127 -0.0000 0.0000 -11.8393 13.9653 44.4858 9.8852 -7.1250 0.0000 -0.0000 -39.2053 71.9655 -26.2886 0.0000 0.0000 0.0000 58.7310 32.3137 -32.9768 -9.8411 16.4906 -1.4295 0.0000 0.0000 11.0075 -16.0982 0.6826 -0.1970 7.1250 -0.0000 -0.0000 8.1741 -29.2248 3.1720
0.0937 16.8693 -18.3290 39.1424 -88.6207 -39.5608 0.0000 0.0000 0.0000 -24.9424 -3.2908 -19.9817 7.9973 16.1172 52.5528 1.0796 -3.8494 -18.7323 1.9920 -8.8493 -25.3251 0.0000 0.0000 0.0000 -0.0303 25.6316 -19.1375 -4.0694 -12.2522 36.6302 -1.2888 0.8668 -21.2017 -0.0027 -0.3335 0.9164 6.5541 -0.0792 32.9102 8.5613 1.7687 7.9628 5.0199 0.2159 -8.1829 -5.4167 -4.3070 -10.1329 -8.3836 -3.6984 23.9258 -2.4010 -3.3113 9.1745 -0.0000 0.0000 0.0000 -91.9063 13.9918 23.4544 33.7709 -43.9143 -13.9539 -0.0000 0.0000 -12.2897 8.7383 44.0983 6.1053 -7.1250 0.0000 -0.0000 -43.6229 69.9122 -27.7139 -0.0000 0.0000 0.0000 59.0567 31.0066 -31.9196 -10.7159 17.8515 -1.6878 0.0000 0.0000 7.3987 -16.6927 0.5171 -0.1551 7.1250 -0.0000 -0.0000 7.7246 -29.3989 2.9623
0.1015 16.8215 -18.2282 38.2570 -88.0303 -38.5758 0.0000 0.0000 0.0000 -25.6620 -2.2047 -20.1614 7.8378 15.9986 51.9762 1.1524 -3.2800 -19.4666 3.6321 -11.6540 -34.5188 0.0000 0.0000 0.0000 -0.7062 25.9950 -19.2679 -4.1904 -12.4095 37.1965 -1.3469 0.8974 -21.6734 -0.0234 -0.9867 2.7124 6.2862 -0.0189 32.7907 8.4867 1.7549 7.9778 5.0833 0.2228 -8.1323 -5.6359 -4.6044 -10.2615 -8.1005 -4.1157 23.7724 -2.3102 -3.4831 9.1501 -0.0000 0.0000 0.0000 -91.7143 14.0036 23.3762 33.5930 -43.7809 -13.8307 -0.0000 0.0000 -12.2342 8.6191 44.3793 6.0515 -7.1250 0.0000 -0.0000 -44.3208 70.0632 -28.3537 -0.0000 0.0000 0.0000 58.9831 29.6821 -31.5609 -11.5433 19.1161 -1.9501 0.0000 0.0000 3.8118 -17.0328 0.5754 -0.1763 7.1250 -0.0000 -0.0000 7.4553 -29.3404 2.8679
0.1236 16.8073 -18.1345 30.6669 -87.8022 -30.8048 0.0000 0.0000 0.0000 -25.9125 -2.9582 -19.8150 7.6992 15.8935 51.4719 1.2044 -3.1577 -19.9391 3.3756 -11.2795 -33.2285 0.0000 0.0000 0.0000 -0.7691 26.6636 -19.3091 -4.2852 -12.5305 37.6356 -1.3949 0.9104 -22.0599 -0.0914 -1.9500 5.3676 6.2406 0.1823 32.7098 8.5248 2.0067 7.9583 5.0557 0.3476 -8.1417 -5.3202 -4.9104 -10.3999 -8.1731 -4.5673 23.7886 -2.4386 -3.6695 9.1590 -0.0000 0.0000 0.0000 -91.1523 13.9793 23.8475 33.3422 -43.5914 -13.6574 -0.0000 0.0000 -12.4699 18.4679 45.4710 13.3921 -7.1250 0.0000 -0.0000 -36.8008 74.3004 -26.3070 -0.0000 0.0000 0.0000 58.8886 28.0736 -30.8846 -12.3753 20.3650 -2.2312 0.0000 -0.0000 -0.1011 -17.6446 0.7831 -0.2491 7.1250 -0.0000 -0.0000 6.9644 -29.1267 2.7120
0.1448 16.8107 -18.0301 21.1092 -87.5826 -21.1001 0.0000 0.0000 0.0000 -25.8519 -3.6106 -19.6218 7.6031 15.8194 51.1201 1.2289 -5.3820 -19.8667 1.6356 -8.0618 -22.9018 0.0000 0.0000 0.0000 -0.6336 27.0819 -19.3889 -4.3738 -12.6418 38.0421 -1.3888 0.7975 -22.0440 -0.1061 -2.1005 5.7835 6.5067 0.3818 32.7027 8.5064 2.3712 7.8756 4.7630 0.5219 -8.2289 -4.4755 -5.3535 -10.8180 -8.4682 -5.2340 24.3250 -2.7853 -3.9541 9.3669 -0.0000 -0.0000 0.0000 -90.3528 14.0221 24.5571 33.0661 -43.3808 -13.4675 -0.0000 0.0000 -12.7707 14.2996 44.9546 10.2090 -7.1250 0.0000 -0.0000 -39.9389 72.4149 -27.1925 -0.0000 -0.0000 0.0000 59.0149 26.3450 -31.2818 -13.3661 21.8212 -2.5878 0.0000 -0.0000 -3.3115 -17.5065 0.5674 -0.1790 7.1250 -0.0000 -0.0000 7.0868 -29.3508 2.7223
